<svg id="Capa_1" data-name="Capa 1" xmlns="http://www.w3.org/2000/svg" width="161.616" height="89.572" viewBox="0 0 161.616 89.572">
  <path id="Trazado_1" data-name="Trazado 1" d="M353.6,260.692h.035c-.035-.039-1.346-.98-2.007-8.446-.437-4.822-.517-10.7-.553-15.435,0-3.639-.041-6.757-.243-8.571a.688.688,0,0,0-.037-.274,2.087,2.087,0,0,0-4.105.709c.2,1.615.2,4.656.237,8.169.12,15.518.749,24.044,3.868,26.887a3.589,3.589,0,0,0,1.262.784,2,2,0,0,0,2.606-1.105A2.082,2.082,0,0,0,353.6,260.692Z" transform="translate(-282.857 -186.292)" fill="#fff"/>
  <path id="Trazado_2" data-name="Trazado 2" d="M75.347,281.533a2.154,2.154,0,0,0-.709.08c-1.858.439-2.965,2.569-3.905,4.738-1.623,3.553-2.33,8.095-2.608,12.792-3.657-.3-8.4-3.655-10.74-5.448a25.868,25.868,0,0,1,3.6-3.318,2.071,2.071,0,0,0-2.367-3.4,34.14,34.14,0,0,0-4.54,4.548c-.629-.361-1.268-.715-1.9-1.111-2.05-1.223-4.139-2.442-6.155-3.553a2.063,2.063,0,0,0-2.8.784,2.673,2.673,0,0,0-.28.874v.27a2.089,2.089,0,0,0,1.068,1.7c1.971,1.066,3.948,2.25,6.041,3.508.392.241.784.48,1.221.721-2.957,3.394-5.281,5.988-8.33,7.37-2.663,1.207-6.282,1.55-8.467.468a10.853,10.853,0,0,1-5.22-5.273,10.938,10.938,0,0,0,1.507-.392,11.9,11.9,0,0,0,5.794-4.971,11.627,11.627,0,0,0,2.134-6.122,4.685,4.685,0,0,0-.98-3.078c-.992-1.225-2.963-2.369-6.947-.98a1.235,1.235,0,0,0-.361.161c-3.553,1.3-5.683,4.536-6.075,9.081-.039.431-.039.907-.039,1.372,0,.355.039.75.039,1.109-.314,0-.672-.045-1.06-.086a2.081,2.081,0,0,0-2.214,1.94v.155a2.079,2.079,0,0,0,1.94,2.093c.7.035,1.372.035,2.009.082.98,3.67,4.628,6.941,6.694,8.124a14.607,14.607,0,0,0,11.13.772c6.075-2.026,9.288-6.586,11.93-9.81,2.763,1.619,7.813,5.683,13.264,6.59-.039,4.264.2,4.67.392,8.344.153,2.449.276,4.576.276,6.161a2.042,2.042,0,0,0,2.048,2.056,2.073,2.073,0,0,0,2.091-2.054c0-1.695-.12-3.868-.235-6.4-.2-3.2-.392-3.21-.392-7.156V303.1a7.054,7.054,0,0,0,2.449-.392,8.145,8.145,0,0,0,3.792-2.686,14.462,14.462,0,0,0,1.581-13.942C78.905,283.708,77.52,281.494,75.347,281.533Zm-46.925,10.9c0-.392.037-.75.037-1.105a6.841,6.841,0,0,1,2.3-4.856,4.077,4.077,0,0,1,1.1-.711c1.7-.635,3.043-.635,2.569.825a9.685,9.685,0,0,1-1.383,3.082,9.27,9.27,0,0,1-2.283,2.569,6.212,6.212,0,0,1-2.3.98C28.459,292.949,28.421,292.675,28.421,292.436Zm46.733,4.973a3.725,3.725,0,0,1-.517.551,3.615,3.615,0,0,1-2.291.956A54.282,54.282,0,0,1,74.637,288.1c.159-.435.28-.829.392-1.142.233-.876,1.86-2.41,1.934,4.462A9.934,9.934,0,0,1,75.155,297.409Z" transform="translate(-21.04 -230.311)" fill="#fff"/>
  <path id="Trazado_3" data-name="Trazado 3" d="M507.253,295.192a15.16,15.16,0,0,0-3.2,2.33,12.118,12.118,0,0,0-1.946,2.212,27.785,27.785,0,0,1,.163-3.12v-.233a2.079,2.079,0,0,0-4.148-.2c-.664,6.075.6,13.264,1.773,18.8a2.109,2.109,0,0,0,4.158-.245v-.631l-.051-1.693c-.035-1.824-.035-3.4.051-4.779.2-3.95,1.219-6.467,5.277-8.849a2.073,2.073,0,0,0,.784-2.837A2.1,2.1,0,0,0,507.253,295.192Z" transform="translate(-404.483 -240.927)" fill="#fff"/>
  <path id="Trazado_4" data-name="Trazado 4" d="M415.009,292.743c-.85-3.723-3.774-8.834-7.009-10.615a4.875,4.875,0,0,0-2.322-.658,3.2,3.2,0,0,0-2.312.968,2.31,2.31,0,0,0-1.025,1.009c-.945,2.038-1.92,6.953-1.92,11.648,0,2.857.392,8.034,3,10.556a5.444,5.444,0,0,0,3.776,1.5h0a6.2,6.2,0,0,0,.731-.045,8.732,8.732,0,0,0,3.118-1.066C416.6,303.027,415.483,295.095,415.009,292.743Zm-7.133,10.19a1.649,1.649,0,0,1-1.478-.392c-1.062-1-1.646-3.672-1.646-7.519a35.92,35.92,0,0,1,.833-7.879,2.059,2.059,0,0,0,.666-.864l.265.216a12.451,12.451,0,0,1,1.252,1.117c1.107,1.1,2.659,3.265,3.366,9.28C411.311,301.1,409.571,302.772,407.876,302.933Z" transform="translate(-326.071 -230.605)" fill="#fff"/>
  <path id="Trazado_5" data-name="Trazado 5" d="M442.713,24.764c-5.9-2.765-11.589-3.813-20.029-1.885-.086.022-1,.251-1.056.588.024.084.045.17.125.2.233.216.713.17.827.18,2.022-.114,10.679-2.2,19.029,2.779,6.8,3.958,10.45,10.511,9.588,19.1a74.76,74.76,0,0,0-16.58,2.383,56.942,56.942,0,0,0-11.4,4.413,38.278,38.278,0,0,0-5.046,3.314c-7.662,6.075-5.977,11.534-.449,13.807,4.052,1.634,10.143,1.634,16.233-.98.835-.364,1.72-.813,2.606-1.3,6.427-3.423,14.263-9.292,17.23-18.575.353.016.629.039.943.049,1.1.035,2.207.221,3.271.3,14.316,1.054,33.42,7.856,35.327,28.135.631,6.723-3.225,14.863-12.057,16.139-11.963,1.73-16.84-8.722-18.373-17.26-.139-.772-1.852-.784-2.592-.417-1,.5-1.158,1.513-.945,2.7,2.771,15.437,14.458,21.874,25.833,18.629,11.789-3.363,12.933-15.057,12.531-19.55-1.764-19.705-19.774-30.857-42.893-31.762-.112,0-.325,0-.486-.016C455.021,38.644,452.544,29.371,442.713,24.764Zm-8.622,39.957a19.4,19.4,0,0,1-3.486,1.348c-10.974,3.478-18.224-3.425-5.9-10.419a48.666,48.666,0,0,1,9.813-4.066,66.172,66.172,0,0,1,15.961-2.759c-3.031,7.879-11.311,13.456-16.4,15.9Z" transform="translate(-336.177 -21.895)" fill="#fff"/>
  <path id="Trazado_6" data-name="Trazado 6" d="M680.83,307.322a13.446,13.446,0,0,1-9.614,6.086c-11.963,1.73-16.84-8.722-18.373-17.26-.139-.772-1.852-.784-2.592-.417-1,.5-1.158,1.513-.944,2.7,2.771,15.437,14.457,21.874,25.833,18.629a16.16,16.16,0,0,0,9.67-7.121A30.851,30.851,0,0,1,680.83,307.322Z" transform="translate(-526.12 -241.883)" fill="#fff"/>
  <path id="Trazado_7" data-name="Trazado 7" d="M591.87,285.943a.039.039,0,0,1-.039.029l.016-.429a2.156,2.156,0,0,0-2.352-1.734c-.121.037-.208.065-.321.106a2.053,2.053,0,0,0-1.313-.868,12.243,12.243,0,0,0-4.985.108,11.986,11.986,0,0,0-6.169,3.753,14.162,14.162,0,0,0-2.682,13.542c1.568,4.909,4.991,4.468,6.022,4.223a6.7,6.7,0,0,0,2.167-1c2.351-1.556,4.738-4.574,6.578-7.817C589.6,294.407,592.217,289.247,591.87,285.943ZM582.4,297.877c-1.191,1.46-2.375,2.528-3.331,2.743-.153.033-.555.133-1.058-1.466a9.863,9.863,0,0,1,1.852-9.488,7.821,7.821,0,0,1,2.867-2.091,7.738,7.738,0,0,1,4.4-.41,1.524,1.524,0,0,0,.6-.025C587.4,289.78,584.947,294.759,582.4,297.877Z" transform="translate(-465.107 -231.708)" fill="#fff"/>
  <path id="Trazado_8" data-name="Trazado 8" d="M24.527,195.386a4.415,4.415,0,0,1-1.846-.392.214.214,0,0,0-.3.2v3.4a.455.455,0,0,1-.453.455h-.474a.455.455,0,0,1-.455-.457V188.312a.455.455,0,0,1,.455-.455h.406a.461.461,0,0,1,.459.461h0a.133.133,0,0,0,.212.108,3.711,3.711,0,0,1,2.269-.709,3.531,3.531,0,0,1,3.482,3.782A3.73,3.73,0,0,1,24.527,195.386Zm-.178-6.5a2.913,2.913,0,0,0-1.334.372,1.3,1.3,0,0,0-.643,1.125v2.393a1.278,1.278,0,0,0,.7,1.15,3.245,3.245,0,0,0,1.43.319c1.548,0,2.577-1.348,2.389-3.135a2.444,2.444,0,0,0-2.532-2.224Z" transform="translate(-21 -155.222)" fill="#fff"/>
  <path id="Trazado_9" data-name="Trazado 9" d="M76.41,194.9h0a.2.2,0,0,0-.308-.149,3.208,3.208,0,0,1-1.979.651,2.358,2.358,0,1,1-.018-4.675,4.84,4.84,0,0,1,1.92.364.229.229,0,0,0,.314-.212v-.1c0-1.248-.588-1.828-1.934-1.828a5.487,5.487,0,0,0-1.489.214.427.427,0,0,1-.539-.333l-.067-.347a.392.392,0,0,1,.292-.462,8.366,8.366,0,0,1,1.977-.286c2.112,0,3.114,1,3.114,3.135v3.943a.453.453,0,0,1-.453.455h-.47a.361.361,0,0,1-.361-.368Zm-.071-2.173a.588.588,0,0,0-.317-.519,3.31,3.31,0,0,0-1.687-.429c-.95,0-1.568.421-1.568,1.248s.615,1.266,1.707,1.266a2.389,2.389,0,0,0,1.683-.723.588.588,0,0,0,.18-.421Z" transform="translate(-61.564 -155.242)" fill="#fff"/>
  <path id="Trazado_10" data-name="Trazado 10" d="M121.839,190.635v4.231a.455.455,0,0,1-.455.455H120.9a.453.453,0,0,1-.453-.455v-6.478a.453.453,0,0,1,.453-.455h.412a.455.455,0,0,1,.455.455v.308a.174.174,0,0,0,.3.123,3.292,3.292,0,0,1,2.007-1.007.3.3,0,0,1,.333.3v.588a.472.472,0,0,1-.429.468,3.155,3.155,0,0,0-1.811.733A.991.991,0,0,0,121.839,190.635Z" transform="translate(-100.962 -155.297)" fill="#fff"/>
  <path id="Trazado_11" data-name="Trazado 11" d="M157.132,198.552v-3.527a.212.212,0,0,0-.325-.178,3.508,3.508,0,0,1-1.873.492,3.546,3.546,0,0,1-3.694-3.764,3.839,3.839,0,0,1,3.723-3.905,3.417,3.417,0,0,1,2.024.627.133.133,0,0,0,.21-.108v-.018a.361.361,0,0,1,.361-.361h.506a.455.455,0,0,1,.455.455v10.278a.455.455,0,0,1-.455.455h-.482A.455.455,0,0,1,157.132,198.552Zm0-8.146a1.29,1.29,0,0,0-.551-1.062,2.759,2.759,0,0,0-1.542-.5,2.5,2.5,0,0,0-2.426,2.708,2.565,2.565,0,0,0,3.974,2.216,1.278,1.278,0,0,0,.545-1.058Z" transform="translate(-125.719 -155.184)" fill="#fff"/>
  <path id="Trazado_12" data-name="Trazado 12" d="M210.486,195.373v-.161a.2.2,0,0,0-.308-.145,4.063,4.063,0,0,1-2.351.909,2.311,2.311,0,0,1-2.547-2.516v-4.566a.455.455,0,0,1,.455-.455h.482a.453.453,0,0,1,.453.455v4.19c0,1.142.494,1.722,1.548,1.722a2.873,2.873,0,0,0,1.734-.7,1.248,1.248,0,0,0,.464-.98V188.9a.455.455,0,0,1,.455-.455h.482a.453.453,0,0,1,.453.455v6.478a.453.453,0,0,1-.453.455h-.411a.455.455,0,0,1-.455-.457Z" transform="translate(-169.169 -155.805)" fill="#fff"/>
  <path id="Trazado_13" data-name="Trazado 13" d="M260.912,191.976H256a.2.2,0,0,0-.2.241c.217,1.144.948,1.975,2.724,1.975a6.125,6.125,0,0,0,1.669-.288.361.361,0,0,1,.453.274l.1.459a.359.359,0,0,1-.261.421,8.544,8.544,0,0,1-2.079.331,3.841,3.841,0,0,1-.406-7.67c2.093,0,3.237,1.548,3.237,3.553a4.2,4.2,0,0,1-.014.423A.306.306,0,0,1,260.912,191.976Zm-1.2-1.054a.21.21,0,0,0,.208-.237,1.932,1.932,0,0,0-2.014-1.8,2.006,2.006,0,0,0-2.061,1.834.174.174,0,0,0,.172.206Z" transform="translate(-208.672 -155.226)" fill="#fff"/>
</svg>
